<svg xmlns="http://www.w3.org/2000/svg" width="739" height="120" viewBox="0 0 4378 710" role="img" aria-label="startGBC"><title>startGBC</title><path fill="#ffffff" d="M238.7 710.4Q183.7 710.4 139.7 698.6Q95.7 686.7 64.4 665.1Q33.1 643.4 16.6 613.3Q0 583.3 0 545.9Q0 541.3 0.4 537.5Q0.8 533.6 1 531.1H135.1Q134.9 533.3 134.9 535.6Q134.9 537.8 134.9 539.8Q135.9 564.8 150.9 580.3Q166 595.9 190.4 602.7Q214.9 609.4 242.6 609.4Q266 609.4 288.6 604.7Q311.3 600 326.7 588.4Q342 576.9 342 557.1Q342 533.1 322.6 520.3Q303.1 507.5 271.5 499.2Q239.9 491 203.5 481.9Q169.7 473.5 135.7 462.8Q101.7 452.2 74 435.1Q46.3 418 29.2 390.5Q12 363.1 12 321.8Q12 280 30 249.7Q48 219.3 79.6 199.6Q111.2 179.9 153.6 170.2Q196 160.6 244.9 160.6Q291.5 160.6 331.3 170.2Q371.1 179.9 401.4 198.4Q431.8 216.9 448.7 244.2Q465.6 271.4 465.6 305.8Q465.6 312 465.2 318.4Q464.8 324.9 464.6 326.1H331.7V318.9Q331.7 300.7 320.4 288.1Q309.1 275.5 288.7 268.2Q268.3 261 239.6 261Q219.5 261 202.8 264.2Q186.1 267.5 174.4 273.6Q162.7 279.7 156.1 288.3Q149.6 296.9 149.6 308.3Q149.6 325.8 163.8 336Q178 346.3 202.2 353.5Q226.4 360.7 255.1 368.9Q291.6 378.2 330.9 387.8Q370.2 397.5 404.2 413.4Q438.2 429.3 459.3 458.8Q480.4 488.3 480.4 538.3Q480.4 586 461.9 619.4Q443.4 652.8 410.5 672.6Q377.6 692.4 333.6 701.4Q289.6 710.4 238.7 710.4ZM738.7 710.4Q688.6 710.4 657.7 692.5Q626.7 674.5 612.7 643.9Q598.7 613.3 598.7 576.5V279.6H533.3V172H602.8L629.4 22.2H737.5V172H833V279.6H737.5V553.4Q737.5 577.2 748.5 590Q759.5 602.8 784.1 602.8H833V694Q821.7 698.2 805.3 701.9Q788.8 705.7 771.2 708Q753.6 710.4 738.7 710.4ZM1062.8 710.4Q1036.7 710.4 1007 704.5Q977.3 698.6 951.1 683Q924.9 667.5 908.7 638.2Q892.4 608.9 892.4 562.4Q892.4 507.3 916.5 471.5Q940.7 435.7 984.9 415.3Q1029.2 394.9 1091.2 386.6Q1153.2 378.3 1228.5 378.3V339Q1228.5 316.3 1220.7 299.2Q1213 282.2 1194.8 272.5Q1176.6 262.7 1142.9 262.7Q1110.2 262.7 1089.9 270.7Q1069.5 278.6 1060.8 290.9Q1052 303.3 1052 318.1V330H917Q916 325.2 916 320.6Q916 316 916 309.7Q916 263.8 944 230.1Q972 196.3 1022.9 178.2Q1073.9 160 1142.7 160Q1215 160 1264.8 179.1Q1314.7 198.3 1341 235.4Q1367.2 272.5 1367.2 328.1V567Q1367.2 585.3 1377.6 594.1Q1387.9 602.8 1401.6 602.8H1434.4V693.6Q1424 698.2 1403.2 703.9Q1382.3 709.7 1352.3 709.7Q1323.3 709.7 1300.7 701.3Q1278.2 692.9 1263.2 677.1Q1248.2 661.3 1242 639.7H1235.8Q1217.9 660.3 1193.5 676.5Q1169.2 692.7 1136.9 701.5Q1104.7 710.4 1062.8 710.4ZM1109.3 605.2Q1137 605.2 1159.2 597Q1181.3 588.7 1196.5 574.2Q1211.7 559.6 1220.1 538.6Q1228.5 517.7 1228.5 493.1V464.5Q1172.6 464.5 1128.3 472Q1084 479.4 1058.7 497.5Q1033.5 515.7 1033.5 547.4Q1033.5 565.8 1042.3 578.8Q1051.2 591.7 1068.2 598.5Q1085.3 605.2 1109.3 605.2ZM1503.2 698.4V172H1618.5L1629.1 254.3H1636.1Q1646.8 228.3 1662.6 206.9Q1678.4 185.5 1702.3 172.6Q1726.1 159.8 1758.5 159.8Q1775.3 159.8 1789.4 163Q1803.4 166.2 1810.4 169.4V295.7H1767.6Q1736.3 295.7 1712.7 304.2Q1689 312.7 1673.2 330.4Q1657.3 348.1 1649.6 374.3Q1642 400.6 1642 435.3V698.4ZM2040.7 710.4Q1990.6 710.4 1959.7 692.5Q1928.7 674.5 1914.7 643.9Q1900.7 613.3 1900.7 576.5V279.6H1835.3V172H1904.8L1931.4 22.2H2039.5V172H2135V279.6H2039.5V553.4Q2039.5 577.2 2050.5 590Q2061.5 602.8 2086.1 602.8H2135V694Q2123.7 698.2 2107.3 701.9Q2090.8 705.7 2073.2 708Q2055.6 710.4 2040.7 710.4ZM2549.3 710.4Q2387.5 710.4 2300 624Q2212.6 537.5 2212.6 355.2Q2212.6 234.9 2254.6 156.3Q2296.7 77.7 2376.3 38.8Q2456 0 2568 0Q2635.3 0 2694.5 15.3Q2753.7 30.7 2799.1 61.6Q2844.4 92.5 2869.9 139.2Q2895.3 185.8 2895.3 249.3H2744.6Q2744.6 218.7 2730.9 194.8Q2717.3 170.9 2693.4 154.5Q2669.6 138.1 2638.6 130Q2607.7 122 2573.1 122Q2521.6 122 2482.6 135.6Q2443.6 149.2 2417.8 176.9Q2392 204.5 2379.3 245.3Q2366.6 286 2366.6 340.4V370.8Q2366.6 445 2388.4 493.5Q2410.2 541.9 2454.3 565.2Q2498.4 588.5 2563.7 588.5Q2617.5 588.5 2658.7 572.1Q2700 555.7 2723.8 524.4Q2747.7 493 2747.7 448.3V441.9H2542.4V327H2895.3V698.4H2797.7L2784.3 624.2Q2754.1 653.3 2719.5 672.5Q2684.8 691.7 2643.2 701Q2601.5 710.4 2549.3 710.4ZM3038.9 698.4V12H3431.1Q3485.5 12 3528.9 33.1Q3572.3 54.2 3597.5 92.2Q3622.7 130.2 3622.7 181Q3622.7 222.4 3607.5 254.4Q3592.3 286.4 3566.7 307.2Q3541 328.1 3509.3 338.7V342.7Q3546.8 350.7 3576.7 372.5Q3606.6 394.3 3623.8 429Q3641 463.6 3641 510.7Q3641 572.8 3612.9 614.6Q3584.7 656.3 3537.7 677.4Q3490.8 698.4 3432.4 698.4ZM3188.7 576.8H3402.8Q3439.9 576.8 3463.7 555.7Q3487.5 534.6 3487.5 490.1Q3487.5 464.9 3477.5 445.8Q3467.4 426.6 3447.3 416.1Q3427.2 405.6 3396.6 405.6H3188.7ZM3188.7 289.4H3386Q3413 289.4 3431.4 279.2Q3449.9 268.9 3459.5 251Q3469.1 233.1 3469.1 210.5Q3469.1 171.3 3447.5 151.5Q3425.8 131.7 3391.5 131.7H3188.7ZM4068.5 710.4Q3960.9 710.4 3885.3 672.8Q3809.7 635.1 3770 556.4Q3730.3 477.7 3730.3 355.2Q3730.3 175.3 3818.8 87.7Q3907.4 0 4068.5 0Q4156.8 0 4226.6 30Q4296.4 60 4337 120.1Q4377.6 180.2 4377.6 271.5H4227.7Q4227.7 223.7 4207.8 190.4Q4187.9 157.1 4152.4 139.5Q4116.9 122 4069.9 122Q4006.4 122 3965 147Q3923.6 172.1 3904 220.7Q3884.3 269.2 3884.3 339.7V370.8Q3884.3 442 3904.1 490.6Q3923.8 539.1 3964.7 563.8Q4005.7 588.5 4069.4 588.5Q4119.7 588.5 4156.4 571.5Q4193.1 554.6 4213.1 521.4Q4233.1 488.2 4233.1 440.6H4377.6Q4377.6 531.4 4337.8 591.3Q4298 651.3 4228.3 680.8Q4158.7 710.4 4068.5 710.4Z"/></svg>
